<?xml version="1.0" standalone="no"?>
<!DOCTYPE svg PUBLIC "-//W3C//DTD SVG 20010904//EN"
 "http://www.w3.org/TR/2001/REC-SVG-20010904/DTD/svg10.dtd">
<svg version="1.0" xmlns="http://www.w3.org/2000/svg"
 width="500.000000pt" height="445.000000pt" viewBox="0 0 500.000000 445.000000"
 preserveAspectRatio="xMidYMid meet">

<g transform="translate(0.000000,445.000000) scale(0.100000,-0.100000)"
fill="#000000" stroke="none">
<path d="M865 3550 c-3 -5 11 -20 32 -32 21 -13 112 -66 203 -119 l165 -97 5
-218 c4 -186 7 -219 20 -219 13 0 15 33 18 226 l2 227 -208 121 c-115 66 -214
121 -220 121 -6 0 -14 -4 -17 -10z"/>
<path d="M1310 2818 c0 -7 82 -61 183 -119 l182 -106 3 -223 2 -223 -39 -33
c-44 -38 -71 -88 -71 -132 0 -27 -11 -35 -196 -141 -107 -62 -202 -110 -209
-107 -8 3 -92 50 -186 106 -109 63 -176 97 -182 91 -5 -5 -7 -14 -3 -19 7 -12
351 -213 374 -218 9 -2 109 49 221 113 l204 118 12 58 c12 58 48 110 87 123
17 5 18 22 18 257 l0 252 -185 108 c-180 105 -215 120 -215 95z"/>
<path d="M2010 2719 c-96 -54 -178 -99 -182 -99 -5 0 -8 -114 -8 -253 l0 -254
26 -13 c39 -22 68 -70 74 -124 l5 -48 205 -119 c113 -65 212 -119 221 -119 16
0 324 180 348 205 38 37 -9 17 -172 -74 l-176 -100 -193 113 -193 113 -7 42
c-9 52 -40 104 -79 132 l-29 21 2 225 3 225 165 99 c175 106 187 114 173 122
-5 3 -87 -39 -183 -94z"/>
<path d="M1515 2575 c-242 -100 -406 -340 -409 -600 -1 -113 11 -177 32 -173
9 3 15 11 13 19 -2 8 -6 55 -8 105 -15 269 135 509 385 614 61 26 83 48 57 56
-5 2 -37 -8 -70 -21z"/>
<path d="M1932 2580 c2 -6 38 -26 80 -44 144 -63 240 -153 309 -291 52 -105
73 -205 65 -315 -3 -47 -8 -95 -12 -107 -8 -28 20 -33 31 -5 17 41 18 212 1
285 -46 191 -177 361 -345 445 -79 40 -137 54 -129 32z"/>
<path d="M1701 2014 c-12 -15 -21 -35 -21 -45 0 -69 74 -111 128 -73 32 22 43
57 31 94 -13 36 -36 50 -83 50 -25 0 -40 -7 -55 -26z"/>
<path d="M1439 1719 l-207 -119 -7 -153 c-3 -83 -5 -276 -3 -427 3 -252 4
-275 21 -278 16 -3 17 22 17 415 l0 418 196 112 c196 111 196 111 230 97 42
-18 115 -18 157 0 32 13 35 12 224 -98 l192 -111 1 -282 0 -283 -165 0 -165 0
0 120 c0 100 -2 120 -15 120 -13 0 -15 -35 -15 -255 0 -218 2 -255 15 -255 12
0 15 22 17 118 l3 117 160 0 160 0 3 -117 c2 -91 6 -118 16 -118 11 0 15 75
21 403 4 221 6 413 4 426 -3 20 -42 47 -216 148 -202 118 -213 123 -235 109
-42 -28 -100 -30 -153 -7 -26 12 -48 21 -49 20 0 0 -94 -54 -207 -120z"/>
<path d="M1300 1501 c0 -14 79 -79 135 -111 230 -132 521 -111 733 52 49 38
67 68 40 68 -6 0 -34 -17 -62 -39 -108 -82 -214 -121 -351 -128 -157 -8 -297
35 -414 127 -48 38 -81 51 -81 31z"/>
<path d="M807 1243 c-4 -3 -7 -118 -7 -255 l0 -248 167 2 c122 2 167 6 171 16
3 9 -31 12 -147 12 l-151 0 0 240 c0 193 -3 240 -13 240 -8 0 -17 -3 -20 -7z"/>
<path d="M1491 1224 c-149 -74 -184 -291 -68 -412 53 -56 102 -76 182 -76 54
0 80 5 115 23 79 41 80 43 80 148 l0 93 -100 0 c-81 0 -100 -3 -100 -15 0 -11
18 -15 83 -17 l82 -3 3 -67 3 -67 -42 -28 c-57 -37 -157 -45 -215 -15 -162 83
-163 332 -1 408 29 13 70 24 92 24 48 0 119 -31 158 -67 l27 -27 0 26 c0 30
-21 50 -80 77 -66 30 -152 28 -219 -5z"/>
<path d="M2380 1230 c0 -19 7 -20 90 -20 l90 0 0 -236 c0 -219 1 -235 18 -232
15 3 17 24 20 236 l2 232 85 0 c78 0 85 2 85 20 0 19 -7 20 -195 20 -188 0
-195 -1 -195 -20z"/>
<path d="M2856 1238 c5 -7 52 -76 106 -152 l98 -140 0 -103 c0 -96 1 -103 20
-103 19 0 20 7 20 100 l0 99 105 147 c58 81 105 151 105 155 0 5 -8 9 -19 9
-13 0 -48 -43 -112 -135 -51 -74 -96 -132 -100 -128 -5 5 -48 64 -96 133 -64
91 -95 126 -112 128 -17 3 -21 0 -15 -10z"/>
<path d="M3410 995 l0 -255 178 2 c149 3 177 5 177 18 0 13 -26 15 -163 18
l-163 2 3 98 3 97 143 3 c117 2 142 5 142 17 0 13 -24 15 -145 15 l-145 0 0
100 0 100 163 2 c136 3 162 5 162 18 0 13 -28 15 -177 18 l-178 2 0 -255z"/>
<path d="M4044 1153 c-134 -287 -186 -405 -180 -410 14 -14 36 11 64 71 l31
66 149 0 149 0 32 -70 c24 -51 38 -70 52 -70 10 0 19 2 19 3 0 2 -53 116 -118
253 -78 164 -124 250 -135 252 -13 3 -29 -21 -63 -95z m68 -231 c-68 -1 -126
-1 -128 1 -2 2 24 66 58 142 l63 139 66 -140 66 -139 -125 -3z"/>
<path d="M4440 996 c0 -249 1 -256 20 -256 19 0 20 7 20 105 l0 105 83 0 82
-1 80 -104 c61 -81 85 -105 103 -105 21 0 15 11 -57 105 -45 57 -81 106 -81
108 0 2 18 9 39 16 97 29 133 157 63 224 -42 40 -78 49 -219 55 l-133 5 0
-257z m277 203 c51 -19 73 -48 73 -96 0 -32 -7 -50 -27 -73 -34 -38 -79 -49
-195 -50 l-88 0 0 115 0 115 104 0 c58 0 117 -5 133 -11z"/>
</g>
</svg>
